<svg xmlns="http://www.w3.org/2000/svg" width="48.001" height="48"><g data-name="Сгруппировать 88" transform="translate(-828 -2532.442)" fill="#d3820f"><path data-name="Контур 49" d="M853.548 2565.217a2.474 2.474 0 00-1.52-1.733l-5.7-1.986a1 1 0 10-.658 1.888l5.656 1.971a.446.446 0 01.265.28l2.395 12.248a.453.453 0 01-.441.557H843v-12a1 1 0 00-2 0v12h-10.545a.444.444 0 01-.356-.172.478.478 0 01-.078-.422l2.38-12.174a.442.442 0 01.231-.3l5.7-1.987a1 1 0 10-.658-1.888l-5.741 2a2.467 2.467 0 00-1.485 1.753l-2.38 12.174a2.454 2.454 0 002.389 3.015h23.092a2.454 2.454 0 002.4-2.978z"/><path data-name="Контур 50" d="M849 2569.442h-4a1 1 0 00-1 1v3a1 1 0 001 1h4a1 1 0 001-1v-3a1 1 0 00-1-1zm-1 3h-2v-1h2z"/><path data-name="Контур 51" d="M849 2566.442h-4a1 1 0 000 2h4a1 1 0 000-2z"/><path data-name="Контур 52" d="M875 2532.442h-23a1 1 0 00-1 1v18a1 1 0 001 1h2v5a1 1 0 001.65.759l6.72-5.759H875a1 1 0 001-1v-18a1 1 0 00-1-1zm-1 18h-12a1 1 0 00-.651.241l-5.349 4.585v-3.826a1 1 0 00-1-1h-2v-16h21z"/><path data-name="Контур 53" d="M856 2539.442h15a1 1 0 000-2h-15a1 1 0 000 2z"/><path data-name="Контур 54" d="M856 2543.442h15a1 1 0 000-2h-15a1 1 0 000 2z"/><path data-name="Контур 55" d="M856 2547.442h11a1 1 0 000-2h-11a1 1 0 000 2z"/><circle data-name="Эллипс 17" cx="1" cy="1" r="1" transform="translate(837.001 2566.442)"/><circle data-name="Эллипс 18" cx="1" cy="1" r="1" transform="translate(837.001 2570.442)"/><circle data-name="Эллипс 19" cx="1" cy="1" r="1" transform="translate(837.001 2574.442)"/><path data-name="Контур 56" d="M841.693 2561.393a.993.993 0 00.615 0c.233-.074 5.693-1.922 5.693-9.284 0-6.92-4.2-7.667-6-7.667s-6 .747-6 7.667c-.001 7.362 5.46 9.21 5.692 9.284zm.308-14.951c2.654 0 4 1.906 4 5.667 0 5-3.005 6.8-4 7.255-.984-.459-4-2.272-4-7.255-.001-3.761 1.345-5.667 3.999-5.667z"/></g></svg>