<svg xmlns="http://www.w3.org/2000/svg" width="48" height="45"><path data-name="Контур 62" d="M46.325 26a4.5 4.5 0 00-2.825-8h-4.944a.983.983 0 00-.556-.19c-2.514 0-3.006-.566-3.054-.63l-.009-.115c2.552-6.815 2.9-11.757 1.035-14.69A4.988 4.988 0 0032.324 0a3.9 3.9 0 00-3.157 1.248 3.676 3.676 0 00-.735 2.8c.864 8.715-5.866 10.917-6.121 11a7.325 7.325 0 00-5.18 5.954H16a1 1 0 000 2h2a1 1 0 001-.944c.011-.168.283-4.112 3.866-5.088.086-.026 8.588-2.733 7.546-13.2a1.788 1.788 0 01.293-1.242 1.962 1.962 0 011.528-.534 3.033 3.033 0 012.084 1.5c1.012 1.643 1.617 5.208-1.221 12.792a2.083 2.083 0 00.156 1.952c.618.97 1.992 1.477 4.172 1.553a.979.979 0 00.578.2h5.5a2.5 2.5 0 010 5 .638.638 0 01-.5 0h-1a1 1 0 000 2h1a.652.652 0 01.5 0 2.5 2.5 0 010 5H41a1 1 0 000 2h1a2 2 0 010 4h-1.5a.638.638 0 01-.5 0h-1a1 1 0 000 2h1a.652.652 0 01.5 0 1.5 1.5 0 010 3H19.7c-.531 0-1.008-.494-1.676-1.249a3.916 3.916 0 00-2.811-1.751H14v-23a1 1 0 00-1-1H1a1 1 0 00-1 1v27a1 1 0 001 1h12a1 1 0 001-1v-2h1.215c.361 0 .846.547 1.313 1.077a4.369 4.369 0 003.174 1.923h20.8a3.5 3.5 0 003.005-5.294 4 4 0 001.731-6.054 4.5 4.5 0 001.089-7.652zM12 43h-2v-4a1 1 0 00-2 0v4H6v-4a1 1 0 00-2 0v4H2V18h10z" fill="#d3820f"/></svg>