<svg xmlns="http://www.w3.org/2000/svg" width="48" height="48"><g data-name="Сгруппировать 91"><g data-name="Сгруппировать 89"><path data-name="Контур 57" d="M47 15H1a1 1 0 010-2h46a1 1 0 010 2z" fill="#d3820f"/></g><g data-name="Сгруппировать 90" fill="#d3820f"><path data-name="Контур 58" d="M48 15.605v-1.6c0-.026-.013-.048-.015-.073a.88.88 0 00-.039-.193.942.942 0 00-.069-.19c-.012-.022-.012-.047-.025-.068l-8-13c-.021-.034-.053-.052-.076-.082a1.044 1.044 0 00-.139-.149.965.965 0 00-.158-.106.85.85 0 00-.168-.076.943.943 0 00-.2-.042c-.037 0-.069-.021-.107-.021h-30c-.038 0-.07.018-.107.021a.973.973 0 00-.206.042.942.942 0 00-.164.075.861.861 0 00-.162.109.9.9 0 00-.136.146.861.861 0 00-.077.083l-8 13c-.013.021-.013.046-.025.068a1.31 1.31 0 00-.108.383c0 .025-.015.047-.015.073v1.6a5.387 5.387 0 004 5.189V46h-3a1 1 0 000 2h46a1 1 0 000-2h-3V20.794A5.387 5.387 0 0048 15.605zm-5.394 3.4h-.211a3.4 3.4 0 01-3.4-3.4v-1.6a.918.918 0 00-.035-.173.978.978 0 00-.031-.186L34.451 2.005h3.985l7.559 12.283v1.322A3.4 3.4 0 0142.606 19zM11 14.187L15.687 2h4.148l-1.823 11.848c0 .026.005.05 0 .076s-.015.049-.015.076v1.6a3.4 3.4 0 01-3.394 3.4h-.211a3.4 3.4 0 01-3.4-3.4zm9-.111L21.858 2h4.284L28 14.076v1.041A3.887 3.887 0 0124.117 19h-.234A3.887 3.887 0 0120 15.119zm10 1.041V14c0-.027-.013-.049-.015-.076s.007-.05 0-.076L28.163 2h4.147l4.687 12.187v1.418a3.4 3.4 0 01-3.394 3.4h-.211a3.4 3.4 0 01-3.4-3.4zm-28 .488v-1.322L9.559 2h3.985L9.066 13.641a.975.975 0 00-.031.187A.908.908 0 009 14v1.6A3.4 3.4 0 015.606 19h-.211A3.4 3.4 0 012 15.605zm9 30.4v-11h6v11zm8 0v-12a1 1 0 00-1-1h-8a1 1 0 00-1 1v12H6v-25.04a5.015 5.015 0 018.4.04h.211a5.386 5.386 0 004.509-2.45 5.874 5.874 0 004.768 2.45h.234a5.873 5.873 0 004.768-2.45 5.387 5.387 0 004.51 2.45h.211a5.015 5.015 0 018.394-.04v25.04z"/><path data-name="Контур 59" d="M39 23H23a1 1 0 00-1 1v19a1 1 0 001 1h16a1 1 0 001-1V24a1 1 0 00-1-1zm-1 19H24V25h14z"/><path data-name="Контур 60" d="M18 23h-8a1 1 0 00-1 1v6a1 1 0 001 1h8a1 1 0 001-1v-6a1 1 0 00-1-1zm-1 6h-6v-4h6z"/><path data-name="Контур 61" d="M32 40h3a1 1 0 001-1v-3a1 1 0 00-2 0v2h-2a1 1 0 000 2z"/></g></g></svg>