<svg xmlns="http://www.w3.org/2000/svg" width="48" height="48"><g data-name="Сгруппировать 87"><path data-name="Контур 41" d="M37 46h-2.29c-2.578-1.643-2.873-4.642-2.65-6.9a1 1 0 00-.995-1.1H30v2a9.225 9.225 0 001.758 6H16.239a9.225 9.225 0 001.758-6v-2h-1.065a1 1 0 00-1 1.1c.224 2.259-.071 5.258-2.649 6.9H11a1 1 0 000 2h26a1 1 0 000-2z" fill="#d3820f"/><path data-name="Контур 42" d="M45.208 0H2.792A2.8 2.8 0 000 2.792v34.416A2.8 2.8 0 002.792 40h42.416A2.8 2.8 0 0048 37.208V2.792A2.8 2.8 0 0045.208 0zM2.792 2h42.416a.794.794 0 01.792.792V6H2V2.792A.793.793 0 012.792 2zm42.416 36H2.792A.793.793 0 012 37.208V8h44v29.208a.793.793 0 01-.792.792z" fill="#d3820f"/><g data-name="Сгруппировать 78"><circle data-name="Эллипс 14" cx="1" cy="1" r="1" transform="translate(5 3)" fill="#d3820f"/></g><g data-name="Сгруппировать 79"><circle data-name="Эллипс 15" cx="1" cy="1" r="1" transform="translate(9 3)" fill="#d3820f"/></g><g data-name="Сгруппировать 80"><circle data-name="Эллипс 16" cx="1" cy="1" r="1" transform="translate(13 3)" fill="#d3820f"/></g><g data-name="Сгруппировать 81"><path data-name="Контур 43" d="M13 30H6a1 1 0 01-1-1V13a1 1 0 011-1h16a1 1 0 011 1v7a1 1 0 01-2 0v-6H7v14h6a1 1 0 010 2z" fill="#d3820f"/></g><g data-name="Сгруппировать 82"><path data-name="Контур 44" d="M24.333 35a1 1 0 01-.707-.293l-3.959-3.96-1.96 1.96a1 1 0 01-1.688-.511l-2-10a1 1 0 011.177-1.176l10 2a1 1 0 01.511 1.687l-1.96 1.96 3.96 3.959a1 1 0 010 1.414l-2.667 2.667a1 1 0 01-.707.293zm-4.666-6.663a1 1 0 01.707.293l3.959 3.96 1.253-1.253-3.96-3.959a1 1 0 010-1.414l1.346-1.346-6.7-1.339 1.34 6.7 1.346-1.346a1 1 0 01.709-.296z" fill="#d3820f"/></g><g data-name="Сгруппировать 83"><path data-name="Контур 45" d="M42 14H28a1 1 0 010-2h14a1 1 0 010 2z" fill="#d3820f"/></g><g data-name="Сгруппировать 84"><path data-name="Контур 46" d="M42 19H28a1 1 0 010-2h14a1 1 0 010 2z" fill="#d3820f"/></g><g data-name="Сгруппировать 85"><path data-name="Контур 47" d="M42 24H28a1 1 0 010-2h14a1 1 0 010 2z" fill="#d3820f"/></g><g data-name="Сгруппировать 86"><path data-name="Контур 48" d="M42 29h-8a1 1 0 010-2h8a1 1 0 010 2z" fill="#d3820f"/></g></g></svg>