<svg xmlns="http://www.w3.org/2000/svg" width="48" height="48"><g data-name="Сгруппировать 77" fill="#d3820f"><path data-name="Контур 38" d="M9 42H6v-3a1 1 0 00-2 0v4a1 1 0 001 1h4a1 1 0 000-2z"/><path data-name="Контур 39" d="M35 27a4 4 0 104 4 4 4 0 00-4-4zm0 6a2 2 0 112-2 2 2 0 01-2 2z"/><path data-name="Контур 40" d="M45.293 24H44v-7.779a2.221 2.221 0 00-2.219-2.219h-2.453L20.593.197a1 1 0 00-1.52.428l-2.25 5.531L10.432 3.1a1.006 1.006 0 00-.81-.024.993.993 0 00-.561.584L5.3 14.002H2.219A2.221 2.221 0 000 16.221v29.562a2.221 2.221 0 002.219 2.219h39.562A2.221 2.221 0 0044 45.781V38h1.293A2.72 2.72 0 0048 35.275v-8.554A2.72 2.72 0 0045.293 24zM42 16.221v7.781h-3v-7.781c0-.075-.015-.146-.022-.219h2.8a.219.219 0 01.222.219zm-23.369-9.2l1.81-4.451 15.516 11.433h-2.729l-6.952-3.325zm-8.067-1.64l6.354 3.039 11.673 5.583H25.22l-12.8-5.908a1 1 0 00-1.367.591l-1.772 5.317H7.429zm9.883 8.622h-9.059l1.208-3.624zm9.553 32H2.219A.219.219 0 012 45.784V16.221a.219.219 0 01.219-.219h34.562a.219.219 0 01.219.219v7.781h-3.062a7 7 0 000 14H37v7.781a.219.219 0 01-.219.219zm12-.219a.219.219 0 01-.219.219h-2.8c.007-.073.022-.144.022-.219v-7.781h3zm4-10.506a.717.717 0 01-.707.725H33.938a5 5 0 010-10h11.355a.716.716 0 01.707.724z"/></g></svg>