<svg xmlns="http://www.w3.org/2000/svg" width="17.233" height="15.821"><g data-name="Сгруппировать 120"><path data-name="Контур 133" d="M15.334 1.462a.294.294 0 00-.379.049.22.22 0 00-.027.318c.014-.229.201-.278.406-.367z" fill="none"/><path data-name="Контур 134" d="M15.175 2.153a.434.434 0 00-.1.044.311.311 0 00.465-.222.347.347 0 00-.035-.111c-.032.027-.086.049-.093.081a.225.225 0 01-.237.208z" fill="none"/><path data-name="Контур 135" d="M2.924 1.562a.1.1 0 00.059-.075c0-.024-.047-.071-.063-.067a.659.659 0 00-.277.1.239.239 0 00-.013.332c.079-.204.079-.203.294-.29z" fill="none"/><path data-name="Контур 136" d="M11.453 1.198a3.5 3.5 0 00-1.641.663c-.374.288-.706.632-1.052.956-.094.089-.155.126-.261.006-.169-.192-.358-.366-.541-.545a3.9 3.9 0 00-1.881-1.032 3.975 3.975 0 00-1.564-.052 3.742 3.742 0 00-1.416.511 3.914 3.914 0 00-1.942 3.357 3.78 3.78 0 001.121 2.865c2.059 2.083 4.138 4.146 6.206 6.22.1.1.162.121.276.007q3.073-3.082 6.155-6.159a3.864 3.864 0 001.176-2.9 3.784 3.784 0 00-1.08-2.7 3.9 3.9 0 00-3.556-1.197z" fill="none"/><path data-name="Контур 137" d="M16.749 3.089A5.06 5.06 0 0012.494.076 5.035 5.035 0 0010.261.4a4.723 4.723 0 00-1.51.911c-.076.07-.142.1-.242.009a5.091 5.091 0 00-6.441-.226A5.092 5.092 0 00.076 4.72a4.705 4.705 0 00.165 1.744 5.039 5.039 0 001.314 2.282q1.891 1.9 3.787 3.79 1.564 1.566 3.124 3.137c.114.114.186.134.3.006.222-.242.46-.47.692-.7 2.046-2.046 4.086-4.1 6.141-6.134a5.028 5.028 0 001.577-3.423 5.449 5.449 0 00-.427-2.333zm-1.248-1.225a.347.347 0 01.035.111.311.311 0 01-.465.222.434.434 0 01.1-.044.225.225 0 00.233-.208c.011-.034.065-.054.098-.081zm-.546-.353a.294.294 0 01.379-.049c-.2.089-.392.138-.406.367a.22.22 0 01.027-.318zm-12.312.013a.659.659 0 01.277-.1c.016 0 .063.043.063.067a.1.1 0 01-.059.075c-.215.087-.215.086-.294.294a.239.239 0 01.013-.336zm12.27 6.471q-3.073 3.082-6.155 6.159c-.114.114-.173.1-.276-.007-2.068-2.074-4.147-4.137-6.206-6.22a3.78 3.78 0 01-1.121-2.865 3.914 3.914 0 011.942-3.357 3.742 3.742 0 011.416-.511 3.975 3.975 0 011.564.052 3.9 3.9 0 011.881 1.032c.183.179.372.353.541.545.106.12.167.083.261-.006.346-.324.678-.668 1.052-.956a3.5 3.5 0 011.641-.663 3.9 3.9 0 013.556 1.2 3.784 3.784 0 011.08 2.7 3.864 3.864 0 01-1.176 2.897z" fill="#ffb400" stroke="#ffb400" stroke-linecap="round" stroke-linejoin="round" stroke-width=".108"/></g></svg>