<svg xmlns="http://www.w3.org/2000/svg" width="17.233" height="15.822"><g data-name="Сгруппировать 19"><path data-name="Контур 17" d="M15.334 1.462a.294.294 0 00-.379.049.22.22 0 00-.027.318c.014-.229.201-.278.406-.367z" fill="none"/><path data-name="Контур 18" d="M15.175 2.153a.434.434 0 00-.1.044.311.311 0 00.464-.221.342.342 0 00-.035-.112c-.032.027-.086.05-.092.082a.226.226 0 01-.237.207z" fill="none"/><path data-name="Контур 19" d="M2.925 1.562a.107.107 0 00.059-.075c0-.024-.048-.071-.064-.067a.669.669 0 00-.277.1.24.24 0 00-.013.332c.078-.204.078-.203.295-.29z" fill="none"/><path data-name="Контур 20" d="M11.453 1.198a3.5 3.5 0 00-1.64.663 14.2 14.2 0 00-1.052.957c-.095.088-.156.125-.262 0-.169-.192-.358-.366-.541-.545a3.9 3.9 0 00-1.881-1.032 4.013 4.013 0 00-1.564-.052 3.732 3.732 0 00-1.415.512 3.909 3.909 0 00-1.942 3.356 3.776 3.776 0 001.12 2.865c2.059 2.083 4.138 4.146 6.206 6.22.1.1.163.121.276.007q3.075-3.083 6.155-6.159a3.86 3.86 0 001.176-2.895 3.78 3.78 0 00-1.08-2.7 3.9 3.9 0 00-3.556-1.197z" fill="none"/><path data-name="Контур 21" d="M16.75 3.09A5.059 5.059 0 0012.494.076 5.038 5.038 0 0010.261.4a4.734 4.734 0 00-1.509.911c-.077.07-.143.1-.243.009a5.089 5.089 0 00-6.441-.225A5.087 5.087 0 00.076 4.72a4.712 4.712 0 00.165 1.745 5.043 5.043 0 001.314 2.281q1.891 1.9 3.787 3.79 1.564 1.566 3.125 3.137c.113.115.185.135.3.006.221-.242.459-.47.691-.7 2.046-2.045 4.086-4.1 6.141-6.134a5.025 5.025 0 001.577-3.423 5.458 5.458 0 00-.426-2.332zm-1.249-1.226a.342.342 0 01.035.112.311.311 0 01-.464.221.434.434 0 01.1-.044.226.226 0 00.234-.207c.009-.032.063-.055.095-.082zm-.546-.353a.294.294 0 01.379-.049c-.2.089-.392.138-.406.367a.22.22 0 01.027-.318zm-12.312.013a.669.669 0 01.277-.1c.016 0 .063.043.064.067a.107.107 0 01-.059.075c-.215.087-.216.086-.3.294a.24.24 0 01.018-.336zm12.27 6.471q-3.074 3.084-6.155 6.159c-.113.114-.172.1-.276-.007-2.068-2.074-4.147-4.137-6.206-6.22a3.776 3.776 0 01-1.12-2.865 3.909 3.909 0 011.942-3.356 3.732 3.732 0 011.415-.512 4.013 4.013 0 011.564.052 3.9 3.9 0 011.881 1.032c.183.179.372.353.541.545.106.12.167.083.262 0a14.2 14.2 0 011.052-.957 3.5 3.5 0 011.64-.663 3.9 3.9 0 013.556 1.2 3.78 3.78 0 011.08 2.7 3.86 3.86 0 01-1.176 2.892z" fill="#ffb400" stroke="#ffb400" stroke-linecap="round" stroke-linejoin="round" stroke-width=".108"/></g></svg>