<svg xmlns="http://www.w3.org/2000/svg" width="206.531" height="56.295"><g data-name="Сгруппировать 19" transform="translate(-296 -90.226)"><path data-name="Прямоугольник 16" fill="none" stroke="#1a1818" stroke-miterlimit="10" stroke-width="2" d="M297 91.261h53.803v53.803H297z"/><g data-name="Сгруппировать 16" fill="#1a1818"><path data-name="Контур 11" d="M363.322 91.38a.642.642 0 01.613-.612h.85a1 1 0 01.918.51l9.555 16.661 9.554-16.661a1 1 0 01.918-.51h.817a.572.572 0 01.442.187.613.613 0 01.17.425v21.728a.583.583 0 01-.612.612h-.817a.583.583 0 01-.611-.612v-18.43l-9.012 15.642a.613.613 0 01-.611.374h-.511a.656.656 0 01-.611-.374L365.4 94.712v18.4a.582.582 0 01-.611.612h-.85a.608.608 0 01-.425-.17.568.568 0 01-.188-.442z"/><path data-name="Контур 12" d="M391.954 113.176l9.759-21.932a.786.786 0 01.748-.476h.544a.687.687 0 01.714.476l9.793 21.932a.4.4 0 010 .391.417.417 0 01-.374.153h-.918a.853.853 0 01-.85-.544l-2.278-5.134h-12.718l-2.278 5.134a.854.854 0 01-.85.544h-.952q-.579 0-.34-.544zm10.779-19.382l-5.508 12.344h11.016z"/><path data-name="Контур 13" d="M418.918 113.72a.61.61 0 01-.425-.17.567.567 0 01-.187-.442V91.38a.641.641 0 01.612-.612h9.317a7.051 7.051 0 015.1 1.972 6.937 6.937 0 010 9.827 7.047 7.047 0 01-5.1 1.972h-7.855v8.569a.583.583 0 01-.611.612zm9.317-21.048h-7.855v9.928h7.855a4.932 4.932 0 003.587-1.411 5.068 5.068 0 000-7.09 4.9 4.9 0 00-3.587-1.427z"/><path data-name="Контур 14" d="M441.428 113.72a.61.61 0 01-.425-.17.568.568 0 01-.188-.442V91.38a.642.642 0 01.613-.612h.85a.573.573 0 01.442.187.618.618 0 01.17.425v21.728a.583.583 0 01-.612.612zm13.466-.442l-10.78-11.255 10.133-10.813a1.366 1.366 0 01.986-.442h1.467q.577 0 .2.442l-10.167 10.813 10.813 11.255c.113.114.153.216.119.306s-.142.136-.322.136h-1.463a1.36 1.36 0 01-.986-.442z"/><path data-name="Контур 15" d="M462.476 91.38a.641.641 0 01.612-.612h15.063a.541.541 0 01.613.612v.714c0 .386-.2.578-.613.578h-13.6v8.467h12a.541.541 0 01.611.612v.714c0 .386-.2.578-.611.578h-12v8.773h13.771a.542.542 0 01.613.612v.68a.542.542 0 01-.613.612h-15.234a.61.61 0 01-.425-.17.567.567 0 01-.187-.442z"/><path data-name="Контур 16" d="M482.062 91.38a.641.641 0 01.612-.612h19.246a.54.54 0 01.611.612v.714c0 .386-.2.578-.611.578h-8.6v20.436a.583.583 0 01-.611.612h-.816a.583.583 0 01-.613-.612V92.672h-8.6c-.408 0-.612-.192-.612-.578z"/></g><g data-name="Сгруппировать 18"><g data-name="Сгруппировать 17" fill="#1a1818"><path data-name="Контур 17" d="M383.895 141.353a11.049 11.049 0 01-4.149 3.791 11.956 11.956 0 01-5.713 1.377 11.342 11.342 0 01-8.382-3.367 11.757 11.757 0 018.382-20.163 12.073 12.073 0 015.713 1.36 10.917 10.917 0 014.149 3.774q.306.51-.272.748l-.851.306a.533.533 0 01-.238.068.8.8 0 01-.645-.34 9.166 9.166 0 00-3.367-2.907 9.765 9.765 0 00-4.489-1.037 9.323 9.323 0 00-6.886 2.788 9.49 9.49 0 00-2.77 6.971 9.586 9.586 0 002.77 7.021 9.289 9.289 0 006.886 2.806 9.64 9.64 0 004.489-1.054 9.317 9.317 0 003.367-2.925.806.806 0 01.645-.34.547.547 0 01.238.068l.851.306q.577.238.272.749z"/><path data-name="Контур 18" d="M390.457 146.215a.61.61 0 01-.425-.17.567.567 0 01-.187-.442v-21.728a.641.641 0 01.612-.612h10.133a6.241 6.241 0 014.455 1.666 5.469 5.469 0 011.767 4.148 5.588 5.588 0 01-.764 2.873 5.78 5.78 0 01-2.092 2.092 6.347 6.347 0 012.944 2.258 6.274 6.274 0 01-.833 8.093 6.784 6.784 0 01-4.828 1.819zm10.133-21.048h-8.671v8.093h8.671a4.018 4.018 0 002.941-1.156 4.127 4.127 0 000-5.764 3.989 3.989 0 00-2.941-1.173zm.646 10h-9.317v9.147h9.317a4.565 4.565 0 003.316-1.31 4.356 4.356 0 001.343-3.247 4.423 4.423 0 00-1.327-3.281 4.551 4.551 0 00-3.332-1.312z"/><path data-name="Контур 19" d="M413.545 123.875a.64.64 0 01.612-.612h15.064a.541.541 0 01.612.612v.714c0 .386-.2.578-.612.578h-13.6v8.467h12a.54.54 0 01.611.612v.713c0 .386-.611.579-.611.579h-12v8.773h13.772a.541.541 0 01.612.612v.68a.541.541 0 01-.612.612h-15.236a.61.61 0 01-.425-.17.567.567 0 01-.187-.442z"/><path data-name="Контур 20" d="M433.131 123.875a.64.64 0 01.612-.612h19.246a.541.541 0 01.612.612v.714c0 .386-.2.578-.612.578h-8.6V145.6a.583.583 0 01-.612.612h-.816a.583.583 0 01-.612-.612v-20.433h-8.6c-.408 0-.612-.192-.612-.578z"/><path data-name="Контур 21" d="M453.058 145.671l9.758-21.932a.786.786 0 01.748-.476h.544a.684.684 0 01.714.476l9.793 21.932a.391.391 0 010 .391.415.415 0 01-.374.153h-.918a.852.852 0 01-.849-.544l-2.279-5.135h-12.717l-2.279 5.135a.852.852 0 01-.849.544h-.95c-.388 0-.5-.181-.342-.544zm10.779-19.382l-5.509 12.343h11.017z"/></g></g><circle data-name="Эллипс 8" cx="16.281" cy="16.281" r="16.281" transform="translate(312.651 103.232)" fill="#ffe019"/><path data-name="Контур 22" d="M328.931 112.117l8.1 10.5h-16.203z" fill="#1a1818" stroke="#1a1818" stroke-miterlimit="10" stroke-width="3"/><path data-name="Линия 14" fill="#1a1818" stroke="#1a1818" stroke-linecap="round" stroke-linejoin="round" stroke-width="2" d="M328.931 91.226v23.327"/><path data-name="Контур 23" d="M297 145.064l11.677-14.057v-39.1" fill="none" stroke="#1a1818" stroke-miterlimit="10" stroke-width="2"/><path data-name="Линия 15" fill="none" stroke="#1a1818" stroke-miterlimit="10" stroke-width="2" d="M308.677 131.007h42.009"/></g></svg>