<svg xmlns="http://www.w3.org/2000/svg" width="34.888" height="35.785"><defs><linearGradient id="a" x1="4.026" y1="5.192" x2="4.026" y2="4.267" gradientUnits="objectBoundingBox"><stop offset="0" stop-color="#fab516"/><stop offset=".12" stop-color="#fea617"/><stop offset="1" stop-color="#fbce00"/></linearGradient><linearGradient id="b" x1="4.034" y1="5.449" x2="4.034" y2="4.525" gradientUnits="objectBoundingBox"><stop offset="0" stop-color="#ffcc25"/><stop offset=".12" stop-color="#ffaf1e"/><stop offset="1" stop-color="#ffe518"/></linearGradient><linearGradient id="c" x1="4.886" y1="9.274" x2="4.886" y2="8.347" gradientUnits="objectBoundingBox"><stop offset="0" stop-color="#ffdc4c"/><stop offset="1" stop-color="#ffe629"/></linearGradient></defs><g data-name="Сгруппировать 58" fill-rule="evenodd"><path data-name="Контур 77" d="M353.99-24.016a8.329 8.329 0 01-2.913-.076 7.78 7.78 0 01-2.511-1.05 6.758 6.758 0 01-1.866-1.868 6.033 6.033 0 01-.962-2.477 5.875 5.875 0 01.177-2.624 6.922 6.922 0 011.217-2.316 7.71 7.71 0 012.077-1.757 8.416 8.416 0 012.755-.95 8.4 8.4 0 012.942.073 7.733 7.733 0 012.51 1.049 6.133 6.133 0 011.859 1.843 5.85 5.85 0 01.956 2.449 5.984 5.984 0 01-.171 2.652 5.958 5.958 0 01-1.214 2.342 7.659 7.659 0 01-2.077 1.756 8.34 8.34 0 01-2.783.954zm17.518-15.243l2.133-.328.29 1.889-9.512 15.2-8.984 16.47-3.447-2.288-.291-1.889 1.646-.253 8.485-13.442 8.639-16.029zm-18.029 11.922a2.239 2.239 0 001.662-1.222 3.781 3.781 0 00.4-2.437 3.7 3.7 0 00-1.11-2.179 2.217 2.217 0 00-1.95-.637 2.228 2.228 0 00-1.636 1.219 3.59 3.59 0 00-.4 2.382 3.619 3.619 0 001.112 2.2 2.231 2.231 0 001.928.669zm20.48 18.508a8.111 8.111 0 01-2.914-.076 7.386 7.386 0 01-2.511-1.05 6.9 6.9 0 01-1.857-1.843 5.52 5.52 0 01-.985-2.444 5.63 5.63 0 01.2-2.656 6.659 6.659 0 011.212-2.341A7.34 7.34 0 01369.183-21a8.119 8.119 0 012.755-.948 8.107 8.107 0 012.913.077 7.834 7.834 0 012.537 1.043 6.724 6.724 0 011.862 1.87 5.967 5.967 0 01.935 2.481 5.868 5.868 0 01-.148 2.62 6.923 6.923 0 01-1.219 2.315 7.825 7.825 0 01-2.1 1.761 8.116 8.116 0 01-2.754.949zm-.512-3.321a2.274 2.274 0 001.662-1.222 3.594 3.594 0 00.434-2.388 3.639 3.639 0 00-1.142-2.2 2.278 2.278 0 00-1.952-.666 2.276 2.276 0 00-1.663 1.223 3.777 3.777 0 00-.372 2.433 3.7 3.7 0 001.082 2.182 2.246 2.246 0 001.951.638z" fill="url(#a)" transform="translate(-345.378 41.816)"/><path data-name="Контур 78" d="M353.7-25.906a8.3 8.3 0 01-2.913-.076 7.664 7.664 0 01-2.509-1.05 6.707 6.707 0 01-1.864-1.867 6.016 6.016 0 01-.962-2.478 5.905 5.905 0 01.174-2.623 6.944 6.944 0 011.22-2.317 7.752 7.752 0 012.078-1.756 8.351 8.351 0 012.755-.948 8.363 8.363 0 012.939.073 7.685 7.685 0 012.511 1.049 6.15 6.15 0 011.859 1.841 5.86 5.86 0 01.956 2.45 5.98 5.98 0 01-.171 2.651 5.971 5.971 0 01-1.215 2.343 7.675 7.675 0 01-2.076 1.756 8.324 8.324 0 01-2.783.953zm-.511-3.32a2.242 2.242 0 001.663-1.223 3.79 3.79 0 00.4-2.437 3.7 3.7 0 00-1.109-2.177 2.217 2.217 0 00-1.95-.64 2.234 2.234 0 00-1.637 1.221 3.576 3.576 0 00-.4 2.382 3.619 3.619 0 001.112 2.2 2.23 2.23 0 001.928.671zm20.479 18.509a8.115 8.115 0 01-2.911-.077 7.353 7.353 0 01-2.513-1.051 6.9 6.9 0 01-1.857-1.839 5.56 5.56 0 01-.987-2.447 5.656 5.656 0 01.2-2.656 6.719 6.719 0 011.212-2.343 7.359 7.359 0 012.079-1.754 8.059 8.059 0 012.755-.951 8.084 8.084 0 012.913.078 7.752 7.752 0 012.537 1.044 6.707 6.707 0 011.863 1.868 5.99 5.99 0 01.934 2.481 5.838 5.838 0 01-.15 2.62 6.889 6.889 0 01-1.217 2.315 7.823 7.823 0 01-2.105 1.762 8.158 8.158 0 01-2.755.95zm-.511-3.322a2.274 2.274 0 001.662-1.222 3.594 3.594 0 00.433-2.388 3.64 3.64 0 00-1.14-2.2 2.283 2.283 0 00-1.952-.666 2.279 2.279 0 00-1.664 1.225 3.751 3.751 0 00-.371 2.432 3.692 3.692 0 001.081 2.183 2.247 2.247 0 001.951.637zM351.7-10.208l9.84-15.579 8.639-16.029 3.465 2.229-9.514 15.2-8.986 16.468z" fill="url(#b)" transform="translate(-345.378 41.816)"/><path data-name="Контур 79" d="M353.7-25.906a8.3 8.3 0 01-2.913-.076 7.664 7.664 0 01-2.509-1.05 6.707 6.707 0 01-1.864-1.867 6.016 6.016 0 01-.962-2.478 5.905 5.905 0 01.174-2.623 6.944 6.944 0 011.22-2.317 7.752 7.752 0 012.078-1.756 8.351 8.351 0 012.755-.948 8.363 8.363 0 012.939.073 7.685 7.685 0 012.511 1.049 6.15 6.15 0 011.859 1.841 5.86 5.86 0 01.956 2.45 5.98 5.98 0 01-.171 2.651 5.971 5.971 0 01-1.215 2.343 7.675 7.675 0 01-2.076 1.756 8.324 8.324 0 01-2.783.953zm6.282 2.57c1.208-.048 2.416-.1 3.669-.206l.477-.848 9.514-15.2-3.465-2.229-8.639 16.029zm-6.793-5.89a2.242 2.242 0 001.663-1.223 3.79 3.79 0 00.4-2.437 3.7 3.7 0 00-1.109-2.177 2.217 2.217 0 00-1.95-.64 2.234 2.234 0 00-1.637 1.221 3.576 3.576 0 00-.4 2.382 3.619 3.619 0 001.112 2.2 2.23 2.23 0 001.928.671z" fill="url(#c)" transform="translate(-345.378 41.816)"/></g></svg>