<svg xmlns="http://www.w3.org/2000/svg" width="22.401" height="23.157"><defs><linearGradient id="a" x1="-34.911" y1="19.452" x2="-34.911" y2="18.442" gradientUnits="objectBoundingBox"><stop offset="0" stop-color="#fab516"/><stop offset=".12" stop-color="#fea617"/><stop offset="1" stop-color="#fbce00"/></linearGradient><linearGradient id="b" x1="-34.937" y1="19.445" x2="-34.937" y2="18.436" gradientUnits="objectBoundingBox"><stop offset="0" stop-color="#ffcc25"/><stop offset=".12" stop-color="#ffaf1e"/><stop offset="1" stop-color="#ffe518"/></linearGradient><linearGradient id="c" x1="-35.884" y1="28.188" x2="-35.884" y2="26.959" gradientUnits="objectBoundingBox"><stop offset="0" stop-color="#ffdc4c"/><stop offset="1" stop-color="#ffe629"/></linearGradient></defs><g data-name="Сгруппировать 52"><g data-name="Сгруппировать 51" fill-rule="evenodd"><path data-name="Контур 67" d="M30.469-35.478a10.859 10.859 0 015.756 6.037 10.859 10.859 0 01-.2 8.338 10.859 10.859 0 01-6.033 5.756 10.859 10.859 0 01-8.34-.2A10.856 10.856 0 0115.9-21.58a10.856 10.856 0 01.2-8.337 10.875 10.875 0 016.037-5.759 10.87 10.87 0 018.339.2zm.229 8.172a4.96 4.96 0 00-2.625-2.755 4.973 4.973 0 00-3.807-.089 4.951 4.951 0 00-2.753 2.629 4.948 4.948 0 00-.091 3.806 4.945 4.945 0 002.628 2.753 4.952 4.952 0 003.8.091 4.952 4.952 0 002.758-2.629 4.967 4.967 0 00.092-3.806z" fill="url(#a)" transform="translate(-15.16 37.766)"/><path data-name="Контур 68" d="M31.067-36.832a10.859 10.859 0 015.756 6.032 10.864 10.864 0 01-.2 8.337 10.884 10.884 0 01-6.032 5.763 10.861 10.861 0 01-8.339-.2 10.865 10.865 0 01-5.752-6.034 10.863 10.863 0 01.2-8.338 10.872 10.872 0 016.036-5.757 10.863 10.863 0 018.34.2zm.232 8.174a4.968 4.968 0 00-2.628-2.755 4.957 4.957 0 00-3.806-.09 4.961 4.961 0 00-2.755 2.626 4.955 4.955 0 00-.09 3.807 4.949 4.949 0 002.627 2.754 4.95 4.95 0 003.805.089 4.952 4.952 0 002.756-2.627 4.962 4.962 0 00.092-3.804z" fill="url(#b)" transform="translate(-15.16 37.766)"/><path data-name="Контур 69" d="M31.067-36.832a10.859 10.859 0 015.756 6.032 10.868 10.868 0 01-.086 8.085 24.833 24.833 0 01-5.808-1.6 5.088 5.088 0 00.279-.54 4.962 4.962 0 00.091-3.8 4.968 4.968 0 00-2.628-2.755 4.957 4.957 0 00-3.806-.09 4.961 4.961 0 00-2.755 2.626c-.07.162-.135.33-.188.5a40.5 40.5 0 00-5.6-1.925c.108-.325.232-.646.373-.967a10.872 10.872 0 016.036-5.757 10.863 10.863 0 018.336.191z" fill="url(#c)" transform="translate(-15.16 37.766)"/></g></g></svg>