<svg xmlns="http://www.w3.org/2000/svg" width="28.397" height="28.396"><g data-name="Сгруппировать 117" fill-rule="evenodd"><path data-name="Контур 130" d="M0 13.63C0 7.205 0 3.992 2 1.996s5.209-2 11.635-2h1.135c6.426 0 9.638 0 11.635 2s2 5.209 2 11.634v1.136c0 6.425 0 9.638-2 11.634s-5.209 2-11.635 2h-1.135c-6.426 0-9.638 0-11.635-2s-2-5.209-2-11.634V13.63z" fill="#115aa6"/><path data-name="Контур 131" d="M15.11 20.457c-6.472 0-10.164-4.437-10.318-11.82h3.242c.107 5.419 2.5 7.714 4.39 8.188V8.637h3.053v4.674c1.869-.2 3.833-2.331 4.495-4.674h3.053a9.017 9.017 0 01-4.153 5.892 9.344 9.344 0 014.863 5.928h-3.36a5.842 5.842 0 00-4.9-4.224v4.224z" fill="#fff"/></g></svg>