<svg xmlns="http://www.w3.org/2000/svg" width="17.233" height="15.822" viewBox="0 0 17.233 15.822">
  <g id="Сгруппировать_19" data-name="Сгруппировать 19" transform="translate(-1460.392 -113.328)">
    <path id="Контур_17" data-name="Контур 17" d="M1475.726,114.79a.294.294,0,0,0-.379.049.22.22,0,0,0-.027.318C1475.334,114.928,1475.521,114.879,1475.726,114.79Z" fill="none"/>
    <path id="Контур_18" data-name="Контур 18" d="M1475.567,115.481a.434.434,0,0,0-.1.044.311.311,0,0,0,.464-.221.342.342,0,0,0-.035-.112c-.032.027-.086.05-.092.082A.226.226,0,0,1,1475.567,115.481Z" fill="none"/>
    <path id="Контур_19" data-name="Контур 19" d="M1463.317,114.89a.107.107,0,0,0,.059-.075c0-.024-.048-.071-.064-.067a.669.669,0,0,0-.277.1.24.24,0,0,0-.013.332C1463.1,114.976,1463.1,114.977,1463.317,114.89Z" fill="none"/>
    <path id="Контур_20" data-name="Контур 20" d="M1471.845,114.526a3.5,3.5,0,0,0-1.64.663,14.2,14.2,0,0,0-1.052.957c-.095.088-.156.125-.262,0-.169-.192-.358-.366-.541-.545a3.9,3.9,0,0,0-1.881-1.032,4.013,4.013,0,0,0-1.564-.052,3.732,3.732,0,0,0-1.415.512,3.909,3.909,0,0,0-1.942,3.356,3.776,3.776,0,0,0,1.12,2.865c2.059,2.083,4.138,4.146,6.206,6.22.1.1.163.121.276.007q3.075-3.083,6.155-6.159a3.86,3.86,0,0,0,1.176-2.895,3.78,3.78,0,0,0-1.08-2.7A3.9,3.9,0,0,0,1471.845,114.526Z" fill="none"/>
    <path id="Контур_21" data-name="Контур 21" d="M1477.142,116.418a5.059,5.059,0,0,0-4.256-3.014,5.038,5.038,0,0,0-2.233.324,4.734,4.734,0,0,0-1.509.911c-.077.07-.143.1-.243.009a5.089,5.089,0,0,0-6.441-.225,5.087,5.087,0,0,0-1.992,3.625,4.712,4.712,0,0,0,.165,1.745,5.043,5.043,0,0,0,1.314,2.281q1.891,1.9,3.787,3.79,1.564,1.566,3.125,3.137c.113.115.185.135.3.006.221-.242.459-.47.691-.7,2.046-2.045,4.086-4.1,6.141-6.134a5.025,5.025,0,0,0,1.577-3.423A5.458,5.458,0,0,0,1477.142,116.418Zm-1.249-1.226a.342.342,0,0,1,.035.112.311.311,0,0,1-.464.221.434.434,0,0,1,.1-.044.226.226,0,0,0,.234-.207C1475.807,115.242,1475.861,115.219,1475.893,115.192Zm-.546-.353a.294.294,0,0,1,.379-.049c-.2.089-.392.138-.406.367A.22.22,0,0,1,1475.347,114.839Zm-12.312.013a.669.669,0,0,1,.277-.1c.016,0,.063.043.064.067a.107.107,0,0,1-.059.075c-.215.087-.216.086-.3.294A.24.24,0,0,1,1463.035,114.852Zm12.27,6.471q-3.074,3.084-6.155,6.159c-.113.114-.172.1-.276-.007-2.068-2.074-4.147-4.137-6.206-6.22a3.776,3.776,0,0,1-1.12-2.865,3.909,3.909,0,0,1,1.942-3.356,3.732,3.732,0,0,1,1.415-.512,4.013,4.013,0,0,1,1.564.052,3.9,3.9,0,0,1,1.881,1.032c.183.179.372.353.541.545.106.12.167.083.262,0a14.2,14.2,0,0,1,1.052-.957,3.5,3.5,0,0,1,1.64-.663,3.9,3.9,0,0,1,3.556,1.2,3.78,3.78,0,0,1,1.08,2.7A3.86,3.86,0,0,1,1475.305,121.323Z" fill="#ffb400" stroke="#ffb400" stroke-linecap="round" stroke-linejoin="round" stroke-width="0.108"/>
  </g>
</svg>
